<svg xmlns="http://www.w3.org/2000/svg" viewBox="0 0 100 100">
  <circle cx="50" cy="50" r="50" fill="#f55700"/>
  <path fill="#1e90ff" d="M7.08 75.56c15.99 26.67 48.3 29.6 67.15 18.12-26.07-5.25-35.78-28.79-38.08-45.75-3.78.16-10.83-.05-15.76.13-3.08 17.08-7.86 21.09-13.3 27.5z"/>
  <path fill="#fff" d="M3 43h15c4 0 4-5 0-5h-5c-1 0-1-1 0-1h22c4 0 4-5 0-5H7c-3 0-3 5 0 5h3c1 0 1 1 0 1l-8.55-.01C1.17 39.25.75 41.02.48 43zm90.84 17.95l-15-.05c-4-.01-4.01 4.99-.01 5l5 .02c1 0 1 1 0 1l-22-.07c-4 0-4.02 5-.02 5l28 .08c3 .01 3.02-4.99.02-5h-3c-1 0-1-1 0-1s5 0 10.6.07c.57-1.86.9-3 1.38-5zM20.21 47.62c-1.18 9.56-3.53 14.69-7.65 21.43 4.4 3.03 8.93-15.48 10.16-14.95 1.68.08-1.97 12.74-.52 12.88 1.58-.1 2.82-8.28 4.8-8.31 1.78.29 2.3 9.16 4.12 8.7 1.85-.31-.07-12.13 2.05-13.07 1.87-.2 5.07 16.32 9.59 14.85-3.63-7.02-5.7-14.78-6.7-21.47-4.54.05-11.69-.04-15.85-.06z"/>
</svg>
